<svg xmlns="http://www.w3.org/2000/svg" width="40.375" height="33.625" viewBox="0 0 40.375 33.625">
  <metadata><?xpacket begin="﻿" id="W5M0MpCehiHzreSzNTczkc9d"?>
<x:xmpmeta xmlns:x="adobe:ns:meta/" x:xmptk="Adobe XMP Core 5.6-c138 79.159824, 2016/09/14-01:09:01        ">
   <rdf:RDF xmlns:rdf="http://www.w3.org/1999/02/22-rdf-syntax-ns#">
      <rdf:Description rdf:about=""/>
   </rdf:RDF>
</x:xmpmeta>
                                                                                                    
                                                                                                    
                                                                                                    
                                                                                                    
                                                                                                    
                                                                                                    
                                                                                                    
                                                                                                    
                                                                                                    
                                                                                                    
                                                                                                    
                                                                                                    
                                                                                                    
                                                                                                    
                                                                                                    
                                                                                                    
                                                                                                    
                                                                                                    
                                                                                                    
                                                                                                    
                           
<?xpacket end="w"?></metadata>
<defs>
    <style>
      .cls-1 {
        fill: #fed136;
        fill-rule: evenodd;
      }
    </style>
  </defs>
  <path id="Icon-Laptop" class="cls-1" d="M8.356,1.9H35.264A4.036,4.036,0,0,1,39.3,5.936v17.49a4.036,4.036,0,0,1-4.036,4.036H8.356A4.036,4.036,0,0,1,4.32,23.426V5.936A4.036,4.036,0,0,1,8.356,1.9ZM4.32,24.771H8.356v2.691H4.32V24.771Zm30.943,0H39.3v2.691H35.264V24.771ZM8.356,5.936H35.264V30.152H8.356V5.936ZM4.32,30.152H39.3a2.691,2.691,0,0,1,2.691,2.691c0,1.486-2.55,2.691-4.036,2.691H5.666c-1.486,0-4.036-1.2-4.036-2.691A2.691,2.691,0,0,1,4.32,30.152Zm13.454,2.691h8.072a1.2,1.2,0,0,1,1.345.672,1.2,1.2,0,0,1-1.345.673H17.774a1.2,1.2,0,0,1-1.345-.673A1.2,1.2,0,0,1,17.774,32.843Zm-5-15.159,1.894-1.9a1.336,1.336,0,0,1,1.894,0L21.3,20.538a1.349,1.349,0,0,1,0,1.9l-1.894,1.9a1.335,1.335,0,0,1-1.894,0l-4.735-4.756A1.349,1.349,0,0,1,12.777,17.684Zm16.168-7.447,1.894,1.9a1.35,1.35,0,0,1,0,1.9L20.421,24.506a1.335,1.335,0,0,1-1.894,0l-1.894-1.9a1.35,1.35,0,0,1,0-1.9L27.05,10.237A1.335,1.335,0,0,1,28.944,10.237Z" transform="translate(-1.625 -1.906)"/>
</svg>
